<?xml version="1.0" encoding="UTF-8" standalone="no"?>
<!DOCTYPE svg PUBLIC "-//W3C//DTD SVG 1.1//EN" "http://www.w3.org/Graphics/SVG/1.1/DTD/svg11.dtd">
<svg xmlns="http://www.w3.org/2000/svg" xmlns:xlink="http://www.w3.org/1999/xlink" version="1.1" width="197.52pt" height="194.075pt" viewBox="0 0 197.52 194.075">
<g enable-background="new">
<path transform="matrix(1,0,0,-1,-24.355,-38.92601)" stroke-width=".74721" stroke-linecap="butt" stroke-miterlimit="10" stroke-linejoin="miter" fill="none" stroke="#000000" d="M 124.83598 -61.24113 L 199.55675 -135.9619 "/>
<path transform="matrix(1,0,0,-1,-24.355,-38.92601)" stroke-width=".74721" stroke-linecap="butt" stroke-miterlimit="10" stroke-linejoin="miter" fill="none" stroke="#000000" d="M 124.83598 -61.24113 L 198.7871 -98.60152 "/>
<path transform="matrix(1,0,0,-1,-24.355,-38.92601)" stroke-width=".74721" stroke-linecap="butt" stroke-miterlimit="10" stroke-linejoin="miter" fill="none" stroke="#000000" d="M 124.06633 -61.24113 L 199.5343 -173.32228 "/>
<path transform="matrix(1,0,0,-1,-24.355,-38.92601)" stroke-width=".74721" stroke-linecap="butt" stroke-miterlimit="10" stroke-linejoin="miter" fill="none" stroke="#000000" d="M 124.06633 -98.60152 L 198.7871 -98.60152 "/>
<path transform="matrix(1,0,0,-1,-24.355,-38.92601)" stroke-width=".74721" stroke-linecap="butt" stroke-miterlimit="10" stroke-linejoin="miter" fill="none" stroke="#000000" d="M 124.06633 -98.60152 L 199.55675 -135.9619 "/>
<path transform="matrix(1,0,0,-1,-24.355,-38.92601)" stroke-width=".74721" stroke-linecap="butt" stroke-miterlimit="10" stroke-linejoin="miter" fill="none" stroke="#000000" d="M 124.06633 -98.60152 L 199.5343 -173.32228 "/>
<path transform="matrix(1,0,0,-1,-24.355,-38.92601)" stroke-width=".74721" stroke-linecap="butt" stroke-miterlimit="10" stroke-linejoin="miter" fill="none" stroke="#000000" d="M 124.06633 -135.9619 L 198.7871 -98.60152 "/>
<path transform="matrix(1,0,0,-1,-24.355,-38.92601)" stroke-width=".74721" stroke-linecap="butt" stroke-miterlimit="10" stroke-linejoin="miter" fill="none" stroke="#000000" d="M 124.06633 -135.9619 L 199.55675 -135.9619 "/>
<path transform="matrix(1,0,0,-1,-24.355,-38.92601)" stroke-width=".74721" stroke-linecap="butt" stroke-miterlimit="10" stroke-linejoin="miter" fill="none" stroke="#000000" d="M 124.03647 -136.42516 L 199.5343 -173.32228 "/>
<path transform="matrix(1,0,0,-1,-24.355,-38.92601)" stroke-width=".74721" stroke-linecap="butt" stroke-miterlimit="10" stroke-linejoin="miter" fill="none" stroke="#000000" d="M 124.06633 -173.32228 L 198.7871 -98.60152 "/>
<path transform="matrix(1,0,0,-1,-24.355,-38.92601)" stroke-width=".74721" stroke-linecap="butt" stroke-miterlimit="10" stroke-linejoin="miter" fill="none" stroke="#000000" d="M 124.06633 -173.32228 L 199.55675 -135.9619 "/>
<path transform="matrix(1,0,0,-1,-24.355,-38.92601)" stroke-width=".74721" stroke-linecap="butt" stroke-miterlimit="10" stroke-linejoin="miter" fill="none" stroke="#000000" d="M 124.06633 -173.32228 L 199.5343 -173.32228 "/>
<path transform="matrix(1,0,0,-1,-24.355,-38.92601)" stroke-width=".74721" stroke-linecap="butt" stroke-miterlimit="10" stroke-linejoin="miter" fill="none" stroke="#000000" d="M 124.06633 -210.68267 L 199.5343 -173.32228 "/>
<path transform="matrix(1,0,0,-1,-24.355,-38.92601)" stroke-width=".74721" stroke-linecap="butt" stroke-miterlimit="10" stroke-linejoin="miter" fill="none" stroke="#000000" d="M 124.06633 -210.68267 L 198.75724 -136.05156 "/>
<path transform="matrix(1,0,0,-1,-24.355,-38.92601)" stroke-width=".74721" stroke-linecap="butt" stroke-miterlimit="10" stroke-linejoin="miter" fill="none" stroke="#000000" d="M 124.06633 -210.68267 L 198.7871 -98.60152 "/>
<path transform="matrix(1,0,0,-1,-24.355,-38.92601)" stroke-width=".74721" stroke-linecap="butt" stroke-miterlimit="10" stroke-linejoin="miter" fill="none" stroke="#000000" d="M 49.34557 -79.92133 L 124.06633 -61.24113 "/>
<path transform="matrix(1,0,0,-1,-24.355,-38.92601)" stroke-width=".74721" stroke-linecap="butt" stroke-miterlimit="10" stroke-linejoin="miter" fill="none" stroke="#000000" d="M 49.34557 -79.92133 L 124.06633 -98.60152 "/>
<path transform="matrix(1,0,0,-1,-24.355,-38.92601)" stroke-width=".74721" stroke-linecap="butt" stroke-miterlimit="10" stroke-linejoin="miter" fill="none" stroke="#000000" d="M 49.34557 -79.92133 L 124.03647 -136.42516 "/>
<path transform="matrix(1,0,0,-1,-24.355,-38.92601)" stroke-width=".74721" stroke-linecap="butt" stroke-miterlimit="10" stroke-linejoin="miter" fill="none" stroke="#000000" d="M 49.34557 -79.92133 L 124.06633 -173.32228 "/>
<path transform="matrix(1,0,0,-1,-24.355,-38.92601)" stroke-width=".74721" stroke-linecap="butt" stroke-miterlimit="10" stroke-linejoin="miter" fill="none" stroke="#000000" d="M 49.34557 -79.92133 L 124.06633 -210.68267 "/>
<path transform="matrix(1,0,0,-1,-24.355,-38.92601)" stroke-width=".74721" stroke-linecap="butt" stroke-miterlimit="10" stroke-linejoin="miter" fill="none" stroke="#000000" d="M 49.34557 -117.28171 L 124.06633 -61.24113 "/>
<path transform="matrix(1,0,0,-1,-24.355,-38.92601)" stroke-width=".74721" stroke-linecap="butt" stroke-miterlimit="10" stroke-linejoin="miter" fill="none" stroke="#000000" d="M 49.34557 -117.28171 L 124.06633 -98.60152 "/>
<path transform="matrix(1,0,0,-1,-24.355,-38.92601)" stroke-width=".74721" stroke-linecap="butt" stroke-miterlimit="10" stroke-linejoin="miter" fill="none" stroke="#000000" d="M 49.34557 -117.28171 L 124.06633 -135.9619 "/>
<path transform="matrix(1,0,0,-1,-24.355,-38.92601)" stroke-width=".74721" stroke-linecap="butt" stroke-miterlimit="10" stroke-linejoin="miter" fill="none" stroke="#000000" d="M 49.34557 -117.28171 L 124.06633 -173.32228 "/>
<path transform="matrix(1,0,0,-1,-24.355,-38.92601)" stroke-width=".74721" stroke-linecap="butt" stroke-miterlimit="10" stroke-linejoin="miter" fill="none" stroke="#000000" d="M 49.34557 -117.28171 L 124.06633 -210.68267 "/>
<path transform="matrix(1,0,0,-1,-24.355,-38.92601)" stroke-width=".74721" stroke-linecap="butt" stroke-miterlimit="10" stroke-linejoin="miter" fill="none" stroke="#000000" d="M 49.34557 -153.89488 L 124.06633 -61.24113 "/>
<path transform="matrix(1,0,0,-1,-24.355,-38.92601)" stroke-width=".74721" stroke-linecap="butt" stroke-miterlimit="10" stroke-linejoin="miter" fill="none" stroke="#000000" d="M 49.34557 -153.89488 L 124.06633 -98.60152 "/>
<path transform="matrix(1,0,0,-1,-24.355,-38.92601)" stroke-width=".74721" stroke-linecap="butt" stroke-miterlimit="10" stroke-linejoin="miter" fill="none" stroke="#000000" d="M 49.34557 -153.89488 L 124.03647 -136.42516 "/>
<path transform="matrix(1,0,0,-1,-24.355,-38.92601)" stroke-width=".74721" stroke-linecap="butt" stroke-miterlimit="10" stroke-linejoin="miter" fill="none" stroke="#000000" d="M 49.34557 -153.89488 L 124.06633 -173.32228 "/>
<path transform="matrix(1,0,0,-1,-24.355,-38.92601)" stroke-width=".74721" stroke-linecap="butt" stroke-miterlimit="10" stroke-linejoin="miter" fill="none" stroke="#000000" d="M 49.34557 -153.89488 L 124.06633 -210.68267 "/>
<path transform="matrix(1,0,0,-1,-24.355,-38.92601)" stroke-width=".74721" stroke-linecap="butt" stroke-miterlimit="10" stroke-linejoin="miter" fill="none" stroke="#000000" d="M 49.34557 -192.00247 L 124.06633 -210.68267 "/>
<path transform="matrix(1,0,0,-1,-24.355,-38.92601)" stroke-width=".74721" stroke-linecap="butt" stroke-miterlimit="10" stroke-linejoin="miter" fill="none" stroke="#000000" d="M 49.34557 -192.00247 L 124.06633 -173.32228 "/>
<path transform="matrix(1,0,0,-1,-24.355,-38.92601)" stroke-width=".74721" stroke-linecap="butt" stroke-miterlimit="10" stroke-linejoin="miter" fill="none" stroke="#000000" d="M 49.34557 -192.00247 L 124.03647 -136.42516 "/>
<path transform="matrix(1,0,0,-1,-24.355,-38.92601)" stroke-width=".74721" stroke-linecap="butt" stroke-miterlimit="10" stroke-linejoin="miter" fill="none" stroke="#000000" d="M 49.34557 -192.00247 L 124.06633 -98.60152 "/>
<path transform="matrix(1,0,0,-1,-24.355,-38.92601)" stroke-width=".74721" stroke-linecap="butt" stroke-miterlimit="10" stroke-linejoin="miter" fill="none" stroke="#000000" d="M 49.34557 -192.00247 L 124.06633 -61.24113 "/>
<path transform="matrix(1,0,0,-1,-24.355,-38.92601)" d="M 37.36038 -117.28171 C 37.36038 -110.6689 42.72533 -105.30396 49.34557 -105.30396 C 55.95837 -105.30396 61.32333 -110.6689 61.32333 -117.28171 C 61.32333 -123.90196 55.95837 -129.26692 49.34557 -129.26692 C 42.72533 -129.26692 37.36038 -123.90196 37.36038 -117.28171 Z " fill="#b8e986"/>
<path transform="matrix(1,0,0,-1,-24.355,-38.92601)" stroke-width=".74721" stroke-linecap="butt" stroke-miterlimit="10" stroke-linejoin="miter" fill="none" stroke="#000000" d="M 37.36038 -117.28171 C 37.36038 -110.6689 42.72533 -105.30396 49.34557 -105.30396 C 55.95837 -105.30396 61.32333 -110.6689 61.32333 -117.28171 C 61.32333 -123.90196 55.95837 -129.26692 49.34557 -129.26692 C 42.72533 -129.26692 37.36038 -123.90196 37.36038 -117.28171 Z "/>
<path transform="matrix(1,0,0,-1,-24.355,-38.92601)" d="M 37.36038 -153.89488 C 37.36038 -147.28208 42.72533 -141.91713 49.34557 -141.91713 C 55.95837 -141.91713 61.32333 -147.28208 61.32333 -153.89488 C 61.32333 -160.51514 55.95837 -165.8801 49.34557 -165.8801 C 42.72533 -165.8801 37.36038 -160.51514 37.36038 -153.89488 Z " fill="#b8e986"/>
<path transform="matrix(1,0,0,-1,-24.355,-38.92601)" stroke-width=".74721" stroke-linecap="butt" stroke-miterlimit="10" stroke-linejoin="miter" fill="none" stroke="#000000" d="M 37.36038 -153.89488 C 37.36038 -147.28208 42.72533 -141.91713 49.34557 -141.91713 C 55.95837 -141.91713 61.32333 -147.28208 61.32333 -153.89488 C 61.32333 -160.51514 55.95837 -165.8801 49.34557 -165.8801 C 42.72533 -165.8801 37.36038 -160.51514 37.36038 -153.89488 Z "/>
<path transform="matrix(1,0,0,-1,-24.355,-38.92601)" d="M 37.36038 -79.92133 C 37.36038 -73.30852 42.72533 -67.94357 49.34557 -67.94357 C 55.95837 -67.94357 61.32333 -73.30852 61.32333 -79.92133 C 61.32333 -86.54158 55.95837 -91.90654 49.34557 -91.90654 C 42.72533 -91.90654 37.36038 -86.54158 37.36038 -79.92133 Z " fill="#b8e986"/>
<path transform="matrix(1,0,0,-1,-24.355,-38.92601)" stroke-width=".74721" stroke-linecap="butt" stroke-miterlimit="10" stroke-linejoin="miter" fill="none" stroke="#000000" d="M 37.36038 -79.92133 C 37.36038 -73.30852 42.72533 -67.94357 49.34557 -67.94357 C 55.95837 -67.94357 61.32333 -73.30852 61.32333 -79.92133 C 61.32333 -86.54158 55.95837 -91.90654 49.34557 -91.90654 C 42.72533 -91.90654 37.36038 -86.54158 37.36038 -79.92133 Z "/>
<path transform="matrix(1,0,0,-1,-24.355,-38.92601)" d="M 37.36038 -192.00247 C 37.36038 -185.38967 42.72533 -180.02472 49.34557 -180.02472 C 55.95837 -180.02472 61.32333 -185.38967 61.32333 -192.00247 C 61.32333 -198.62273 55.95837 -203.98769 49.34557 -203.98769 C 42.72533 -203.98769 37.36038 -198.62273 37.36038 -192.00247 Z " fill="#b8e986"/>
<path transform="matrix(1,0,0,-1,-24.355,-38.92601)" stroke-width=".74721" stroke-linecap="butt" stroke-miterlimit="10" stroke-linejoin="miter" fill="none" stroke="#000000" d="M 37.36038 -192.00247 C 37.36038 -185.38967 42.72533 -180.02472 49.34557 -180.02472 C 55.95837 -180.02472 61.32333 -185.38967 61.32333 -192.00247 C 61.32333 -198.62273 55.95837 -203.98769 49.34557 -203.98769 C 42.72533 -203.98769 37.36038 -198.62273 37.36038 -192.00247 Z "/>
<path transform="matrix(1,0,0,-1,-24.355,-38.92601)" d="M 112.08115 -61.24113 C 112.08115 -54.62833 117.44609 -49.26338 124.06633 -49.26338 C 130.67914 -49.26338 136.0441 -54.62833 136.0441 -61.24113 C 136.0441 -67.86139 130.67914 -73.22635 124.06633 -73.22635 C 117.44609 -73.22635 112.08115 -67.86139 112.08115 -61.24113 Z " fill="#ff2400"/>
<path transform="matrix(1,0,0,-1,-24.355,-38.92601)" stroke-width=".74721" stroke-linecap="butt" stroke-miterlimit="10" stroke-linejoin="miter" fill="none" stroke="#000000" d="M 112.08115 -61.24113 C 112.08115 -54.62833 117.44609 -49.26338 124.06633 -49.26338 C 130.67914 -49.26338 136.0441 -54.62833 136.0441 -61.24113 C 136.0441 -67.86139 130.67914 -73.22635 124.06633 -73.22635 C 117.44609 -73.22635 112.08115 -67.86139 112.08115 -61.24113 Z "/>
<path transform="matrix(1,0,0,-1,-24.355,-38.92601)" d="M 187.57898 -135.9619 C 187.57898 -129.34909 192.94394 -123.98415 199.55675 -123.98415 C 206.17699 -123.98415 211.54193 -129.34909 211.54193 -135.9619 C 211.54193 -142.58216 206.17699 -147.94712 199.55675 -147.94712 C 192.94394 -147.94712 187.57898 -142.58216 187.57898 -135.9619 Z " fill="#ffe986"/>
<path transform="matrix(1,0,0,-1,-24.355,-38.92601)" stroke-width=".74721" stroke-linecap="butt" stroke-miterlimit="10" stroke-linejoin="miter" fill="none" stroke="#000000" d="M 187.57898 -135.9619 C 187.57898 -129.34909 192.94394 -123.98415 199.55675 -123.98415 C 206.17699 -123.98415 211.54193 -129.34909 211.54193 -135.9619 C 211.54193 -142.58216 206.17699 -147.94712 199.55675 -147.94712 C 192.94394 -147.94712 187.57898 -142.58216 187.57898 -135.9619 Z "/>
<path transform="matrix(1,0,0,-1,-24.355,-38.92601)" d="M 186.80191 -98.60152 C 186.80191 -91.98871 192.16686 -86.62376 198.7871 -86.62376 C 205.3999 -86.62376 210.76486 -91.98871 210.76486 -98.60152 C 210.76486 -105.22177 205.3999 -110.58673 198.7871 -110.58673 C 192.16686 -110.58673 186.80191 -105.22177 186.80191 -98.60152 Z " fill="#ffe986"/>
<path transform="matrix(1,0,0,-1,-24.355,-38.92601)" stroke-width=".74721" stroke-linecap="butt" stroke-miterlimit="10" stroke-linejoin="miter" fill="none" stroke="#000000" d="M 186.80191 -98.60152 C 186.80191 -91.98871 192.16686 -86.62376 198.7871 -86.62376 C 205.3999 -86.62376 210.76486 -91.98871 210.76486 -98.60152 C 210.76486 -105.22177 205.3999 -110.58673 198.7871 -110.58673 C 192.16686 -110.58673 186.80191 -105.22177 186.80191 -98.60152 Z "/>
<path transform="matrix(1,0,0,-1,-24.355,-38.92601)" d="M 187.54912 -173.32228 C 187.54912 -166.70948 192.91407 -161.34453 199.5343 -161.34453 C 206.14711 -161.34453 211.51207 -166.70948 211.51207 -173.32228 C 211.51207 -179.94254 206.14711 -185.3075 199.5343 -185.3075 C 192.91407 -185.3075 187.54912 -179.94254 187.54912 -173.32228 Z " fill="#ffe986"/>
<path transform="matrix(1,0,0,-1,-24.355,-38.92601)" stroke-width=".74721" stroke-linecap="butt" stroke-miterlimit="10" stroke-linejoin="miter" fill="none" stroke="#000000" d="M 187.54912 -173.32228 C 187.54912 -166.70948 192.91407 -161.34453 199.5343 -161.34453 C 206.14711 -161.34453 211.51207 -166.70948 211.51207 -173.32228 C 211.51207 -179.94254 206.14711 -185.3075 199.5343 -185.3075 C 192.91407 -185.3075 187.54912 -179.94254 187.54912 -173.32228 Z "/>
<path transform="matrix(1,0,0,-1,-24.355,-38.92601)" d="M 112.08115 -98.60152 C 112.08115 -91.98871 117.44609 -86.62376 124.06633 -86.62376 C 130.67914 -86.62376 136.0441 -91.98871 136.0441 -98.60152 C 136.0441 -105.22177 130.67914 -110.58673 124.06633 -110.58673 C 117.44609 -110.58673 112.08115 -105.22177 112.08115 -98.60152 Z " fill="#ff2400"/>
<path transform="matrix(1,0,0,-1,-24.355,-38.92601)" stroke-width=".74721" stroke-linecap="butt" stroke-miterlimit="10" stroke-linejoin="miter" fill="none" stroke="#000000" d="M 112.08115 -98.60152 C 112.08115 -91.98871 117.44609 -86.62376 124.06633 -86.62376 C 130.67914 -86.62376 136.0441 -91.98871 136.0441 -98.60152 C 136.0441 -105.22177 130.67914 -110.58673 124.06633 -110.58673 C 117.44609 -110.58673 112.08115 -105.22177 112.08115 -98.60152 Z "/>
<path transform="matrix(1,0,0,-1,-24.355,-38.92601)" d="M 112.08115 -135.9619 C 112.08115 -129.34909 117.44609 -123.98415 124.06633 -123.98415 C 130.67914 -123.98415 136.0441 -129.34909 136.0441 -135.9619 C 136.0441 -142.58216 130.67914 -147.94712 124.06633 -147.94712 C 117.44609 -147.94712 112.08115 -142.58216 112.08115 -135.9619 Z " fill="#ff2400"/>
<path transform="matrix(1,0,0,-1,-24.355,-38.92601)" stroke-width=".74721" stroke-linecap="butt" stroke-miterlimit="10" stroke-linejoin="miter" fill="none" stroke="#000000" d="M 112.08115 -135.9619 C 112.08115 -129.34909 117.44609 -123.98415 124.06633 -123.98415 C 130.67914 -123.98415 136.0441 -129.34909 136.0441 -135.9619 C 136.0441 -142.58216 130.67914 -147.94712 124.06633 -147.94712 C 117.44609 -147.94712 112.08115 -142.58216 112.08115 -135.9619 Z "/>
<path transform="matrix(1,0,0,-1,-24.355,-38.92601)" d="M 112.08115 -173.32228 C 112.08115 -166.70948 117.44609 -161.34453 124.06633 -161.34453 C 130.67914 -161.34453 136.0441 -166.70948 136.0441 -173.32228 C 136.0441 -179.94254 130.67914 -185.3075 124.06633 -185.3075 C 117.44609 -185.3075 112.08115 -179.94254 112.08115 -173.32228 Z " fill="#ff2400"/>
<path transform="matrix(1,0,0,-1,-24.355,-38.92601)" stroke-width=".74721" stroke-linecap="butt" stroke-miterlimit="10" stroke-linejoin="miter" fill="none" stroke="#000000" d="M 112.08115 -173.32228 C 112.08115 -166.70948 117.44609 -161.34453 124.06633 -161.34453 C 130.67914 -161.34453 136.0441 -166.70948 136.0441 -173.32228 C 136.0441 -179.94254 130.67914 -185.3075 124.06633 -185.3075 C 117.44609 -185.3075 112.08115 -179.94254 112.08115 -173.32228 Z "/>
<path transform="matrix(1,0,0,-1,-24.355,-38.92601)" d="M 112.08115 -210.68267 C 112.08115 -204.06986 117.44609 -198.70491 124.06633 -198.70491 C 130.67914 -198.70491 136.0441 -204.06986 136.0441 -210.68267 C 136.0441 -217.30292 130.67914 -222.66788 124.06633 -222.66788 C 117.44609 -222.66788 112.08115 -217.30292 112.08115 -210.68267 Z " fill="#ff2400"/>
<path transform="matrix(1,0,0,-1,-24.355,-38.92601)" stroke-width=".74721" stroke-linecap="butt" stroke-miterlimit="10" stroke-linejoin="miter" fill="none" stroke="#000000" d="M 112.08115 -210.68267 C 112.08115 -204.06986 117.44609 -198.70491 124.06633 -198.70491 C 130.67914 -198.70491 136.0441 -204.06986 136.0441 -210.68267 C 136.0441 -217.30292 130.67914 -222.66788 124.06633 -222.66788 C 117.44609 -222.66788 112.08115 -217.30292 112.08115 -210.68267 Z "/>
</g>
</svg>
